<?xml version="1.0" encoding="UTF-8"?>
<!DOCTYPE svg PUBLIC "-//W3C//DTD SVG 1.1//EN" "http://www.w3.org/Graphics/SVG/1.1/DTD/svg11.dtd">
<!-- Creator: CorelDRAW -->
<svg xmlns="http://www.w3.org/2000/svg" xml:space="preserve" width="1.0895in" height="1.09722in" version="1.1" style="shape-rendering:geometricPrecision; text-rendering:geometricPrecision; image-rendering:optimizeQuality; fill-rule:evenodd; clip-rule:evenodd"
viewBox="0 0 1145.47 1153.59"
 xmlns:xlink="http://www.w3.org/1999/xlink"
 xmlns:xodm="http://www.corel.com/coreldraw/odm/2003">
 <defs>
  <style type="text/css">
   <![CDATA[
    .fil1 {fill:black}
    .fil2 {fill:black}
    .fil0 {fill:#4285F4}
    .fil3 {fill:#4285F4}
   ]]>
  </style>
 </defs>
 <g id="Layer_x0020_1">
  <metadata id="CorelCorpID_0Corel-Layer"/>
  <g id="_2188054797360">
   <g>
    <path class="fil0" d="M691.91 584.89c2.77,0.6 17.01,9.39 20.47,11.37l30.6 17.65c14.3,8.1 19.57,10.52 37.7,5.53 2.33,-0.12 9.44,-5.25 10.99,-6.69 10.7,-9.95 15.63,-24.62 10.56,-39.76 -2.87,-8.57 -8.92,-15.87 -16.08,-20.11l-34.58 -19.94c-12.8,-6.99 -27.41,-16.28 -40.04,-23.16l-29.1 -16.74c-9.27,-5.05 -26.64,-16.48 -35.32,-19.2 -24.51,-7.66 -50.66,13.49 -47.44,39.72 1.42,11.55 8.11,22.53 17.48,27.87l74.76 43.44z"/>
    <path class="fil0" d="M362.4 550.6c-1.83,0.5 -4.16,2.01 -5.7,3.02 -22.67,14.81 -22.65,50 2.17,63.75l103.08 59.51c8.67,4.73 20.71,12.42 28.77,16.58 14.63,7.57 29.72,3.41 41.03,-5.31 8.51,-6.57 13.92,-20.11 12.58,-31.89 -2.53,-22.29 -17.57,-27.85 -34.5,-37.87l-57.69 -33.49c-2.62,-0.56 -17.41,-9.71 -21.04,-11.77 -6.73,-3.83 -13.86,-7.86 -20.51,-11.82 -19.23,-11.46 -26.23,-17.36 -48.19,-10.7z"/>
    <path class="fil1" d="M780.68 619.45c-18.13,4.99 -23.4,2.57 -37.7,-5.53l-30.6 -17.65c-3.46,-1.98 -17.7,-10.77 -20.47,-11.37l-73.31 42.47c-11.03,6.34 -21.36,19.76 -18.76,38.02 3.27,23.01 26.73,38.72 52.11,28.62 2.09,-0.83 2.98,-1.53 4.74,-2.49 1.55,-0.84 2.95,-1.63 4.62,-2.62 3.22,-1.89 5.92,-3.39 9.16,-5.31l45.88 -26.5c3.24,-1.77 5.86,-3.5 9.16,-5.31 14.62,-7.98 31,-18.22 45.85,-26.52 1.77,-0.99 2.87,-1.61 4.64,-2.6 1.78,-0.99 3.41,-1.78 4.67,-3.22z"/>
    <path class="fil1" d="M362.4 550.6c21.95,-6.66 28.95,-0.75 48.19,10.7 6.65,3.96 13.79,7.98 20.51,11.82 3.63,2.07 18.42,11.21 21.04,11.77 0.94,-1.28 16.52,-9.88 18.17,-10.78l55.32 -32c11.33,-6.74 21.08,-19.6 18.53,-38.14 -3.33,-24.18 -31.04,-38.76 -52.47,-28.12 -8.36,4.15 -19.09,11.09 -27.66,15.77l-59.98 34.58c-4.04,2.2 -40.78,23.27 -41.65,24.4z"/>
   </g>
   <path class="fil2" d="M55.92 616.81c-2.62,29.91 13.12,82.11 20.87,109.76 8.25,29.43 25.62,66.12 38.68,91.88 28.47,2.45 41.53,-10.64 95.84,6.04 63.9,19.64 112.21,82.78 116.89,151.22 1.47,21.54 -2.92,34.08 -3.67,50.85 60.78,27.53 130.2,59.58 203.22,59.85l8.56 -96.38c-31.2,-5.99 -70.88,-7.8 -97.12,-20.95 0.12,-15.63 67.67,-107.01 73.51,-131.06 -77.3,-25.52 -134.06,-60.3 -174.36,-133.63 -18.88,-34.35 -22.72,-62.93 -29.85,-75.36 -19.35,2.07 -122.2,68.5 -137.86,71.38 -3.24,-14.38 -8.2,-27.33 -11.27,-43.44 -1.94,-10.19 -5.04,-40.25 -8.32,-47.39 -19.87,-2.39 -73.5,4.71 -95.13,7.24z"/>
   <path class="fil3" d="M326.11 123.9c-1.55,25.09 11.04,48.45 -5.81,96.63 -9.11,26.06 -25.15,50.85 -40.38,65.82 -15.96,15.67 -39.48,32.05 -65.36,40.96 -39.21,13.49 -54.52,8.58 -94.55,5.94 -25.41,28.47 -60.42,152.71 -61.36,202.82l90.82 8.06c5.44,-0.66 2,0.77 4.92,-2.13 4.79,-5.76 10.23,-79.85 23.27,-96.06l63.69 38.16c18.01,10.72 50.81,32.41 65.74,37.39 19.67,-78.07 70.43,-140.54 136.16,-175.9 38.53,-20.72 53.75,-19.21 75.16,-28.79 -10.62,-21.94 -23.19,-44.23 -35.89,-67.16 -7.48,-13.51 -35.88,-60.01 -36.47,-69.95 19.67,-9.36 65.11,-16.85 89.78,-18.84 2.71,-15.14 -4.69,-66.49 -6.02,-85.62 -0.96,-13.75 1,-13.99 -29.06,-9.02 -56.43,9.34 -91.44,19.51 -143.09,42.96 -10.88,4.93 -21.87,11.57 -31.56,14.74z"/>
   <path class="fil2" d="M608.63 152.48c5.46,4.9 42.73,8.6 51.58,10.34 10.22,2 16.12,3.73 24.93,6.08 8.92,2.38 16.49,3.11 21.95,8.56 -12.15,22.97 -72.19,116.27 -74.69,128.61 8.08,4.13 27.75,9.31 37.74,13.25 69.2,27.32 126.85,87.04 153.03,157.27 3.65,9.8 9.24,33.43 13.05,40.28 20.09,-4.82 120.3,-67.3 137.21,-72.99 10.77,27.27 14.67,59.48 19.24,91.51 15.47,2.72 76.59,-5.9 96.48,-7.56 0.63,-30.78 -12.4,-82.18 -21.31,-109.8 -6.06,-18.78 -29.42,-80.46 -39.63,-90.94 -4.62,-2.96 -16.04,0.16 -23.55,0.99 -8.83,0.98 -17.73,0.98 -26.6,0.54 -68.58,-3.35 -129.15,-49.08 -152.09,-114.39 -13.47,-38.37 -9.08,-55.13 -5.99,-94.42 -15.04,-13.01 -68.7,-32.71 -92.02,-40.28 -27.56,-8.94 -81.34,-21.52 -110.89,-21.33l-8.44 94.28z"/>
   <path class="fil3" d="M969.28 715.5c-9.64,-2.68 -51.36,-29.7 -63.96,-37.32 -16.51,-9.96 -51.39,-33.36 -67.48,-38.45 -9.13,70.6 -74.35,142.29 -134.99,175.92 -38.24,21.21 -61.53,21.47 -74.92,29.25 9.04,27.98 68.29,118.61 73.51,137.47 -33.26,8.25 -55.21,13.56 -92.26,18.95l7.96 96.27c54.13,3.49 167.11,-39.39 203.22,-61.42 -4.96,-57.06 -7.92,-95.87 35.49,-149.42 28.15,-34.72 86.17,-66.38 131.18,-62.08l40.86 3.58c6.25,-19.47 24.91,-49.43 38.11,-92.84 10.32,-33.94 19.07,-72.35 21.1,-110.45l-95.58 -7.92c-6.2,14.14 -6.16,37.76 -9.31,52.59 -2.96,13.98 -7.28,33.62 -12.93,45.88z"/>
   <path class="fil2" d="M129.53 10.84c-75.17,14.77 -143.12,83.71 -126.6,181.6 12.77,75.7 89.58,146.03 183.93,127.15 76.02,-15.21 141.29,-85.73 125.8,-181.67 -12.4,-76.84 -90.01,-145.37 -183.13,-127.08z"/>
   <path class="fil2" d="M962.34 841.64c-48.78,8.8 -75.16,30.46 -98.03,57.9 -23.97,28.75 -39.52,75.26 -31.21,123.58 13.37,77.71 87.27,143.3 180.55,128.31 78.59,-12.62 144.98,-88.21 129.43,-180.83 -13.04,-77.68 -87.49,-145.79 -180.75,-128.97z"/>
   <path class="fil3" d="M972.97 0.85c-82.84,8.18 -148.91,78.91 -141.34,172.27 6.4,78.93 81.88,150.74 172.37,140.62 114.2,-12.77 175.26,-136.51 121.97,-231.06 -29.92,-53.09 -83.56,-88.69 -153.01,-81.83z"/>
   <path class="fil3" d="M128.73 833.06c-79.59,14.69 -141.6,87.45 -126.43,182.38 12.1,75.71 90.92,145.29 182.31,126.77 78.3,-15.86 142.16,-85.68 126.71,-182.53 -12.55,-78.68 -91.89,-143.36 -182.59,-126.62z"/>
  </g>
 </g>
</svg>
